<svg xmlns="http://www.w3.org/2000/svg" viewBox="0 0 336 66" height="66px" width="336px" version="1.1">
    <g id="logo-group" transform="translate(-344 -414)">
        <g id="logo-center" transform="translate(0 0)">
            <g id="title" style="font-style:normal;font-weight:normal;font-size:72px;line-height:1;font-family:'Brandmark Sans 14 Color';font-variant-ligatures:normal;text-align:center;text-anchor:middle" transform="translate(0 0)">
                <g id="path121456" aria-label="m" transform="translate(-1.1368683772161603e-13 368.74803999999995) translate(344.04687125 55.622479999999996) scale(1.11) translate(-370.403 34.632)"> <path class="c1" d="M128.09419,99.88029v22.11597h-11.78394v-17.6991c0-5.45886-1.8916-7.40662-5.27734-7.40662 c-2.71021,0-4.03735,1.82324-4.68604,3.92358v21.18213H94.56221v-17.6991c0-5.45886-1.8916-7.40662-5.27734-7.40662 c-4.90137,0-5.29248,3.88037-5.29248,6.66992v18.43506H72.20869V88.10294h11.78369v4.13318c0,0,2.18042-4.85901,9.73535-4.85901 c5.15137,0,9.80225,2.25952,11.70386,7.20569c1.18604-2.35535,4.32202-7.20569,10.04419-7.20569 C122.20332,87.37711,128.09492,91.21281,128.09419,99.88029z" transform="translate(298.19431 -122.00911)" stroke-width="0" stroke-linejoin="miter" stroke-miterlimit="2" fill="#232323" stroke="#232323"></path> </g>
                <g id="path121458" aria-label="y" transform="translate(-1.1368683772161603e-13 368.74803999999995) translate(411.52515874999995 56.421679999999995) scale(1.11) translate(-428.19425 33.912)"> <path class="c1" d="M121.41621,88.10075l-14.82031,28.48279l-2.81396,5.41345l-7.97168,15.31934H84.02608l10.19727-20.14381 L78.5085,88.10075h13.86328l8.22803,16.46997l8.33936-16.46997H121.41621z" transform="translate(349.68575 -122.01275)" stroke-width="0" stroke-linejoin="miter" stroke-miterlimit="2" fill="#232323" stroke="#232323"></path> </g>
                <g id="path121460" aria-label="p" transform="translate(-1.1368683772161603e-13 368.74803999999995) translate(466.84062124999997 55.3028) scale(1.11) translate(-475.028 34.92)"> <path class="c1" d="M119.99629,105.14103c0,9.99377-7.30762,18.09521-16.32178,18.09521 c-3.9668,0-7.60156-1.56982-10.42969-4.17786v18.26075H81.46065V88.10368h11.78418v3.12 c2.82812-2.60803,6.46289-4.17786,10.42969-4.17786C112.68916,87.04581,119.99629,95.14725,119.99629,105.14103z M107.89229,105.14103c0-4.3009-3.34326-7.78821-7.46777-7.78821s-7.17969,3.4873-7.17969,7.78821 c0,4.30164,3.05518,7.78894,7.17969,7.78894S107.89229,109.44193,107.89229,105.14103z" transform="translate(393.56735 -121.96582)" stroke-width="0" stroke-linejoin="miter" stroke-miterlimit="2" fill="#232323" stroke="#232323"></path> </g>
                <g id="path121462" aria-label="o" transform="translate(-1.1368683772161603e-13 368.74803999999995) translate(517.42581875 55.063039999999994) scale(1.11) translate(-517.60025 35.136)"> <path class="c1" d="M119.82588,105.0496c0,10.05273-7.83447,18.29321-19.83105,18.29321 c-11.99609,0-19.83008-8.24048-19.83008-18.29321c0-10.05286,7.83398-18.20178,19.83008-18.20178 C111.99141,86.84782,119.82588,94.99674,119.82588,105.0496z M107.52559,105.09489c0-4.34839-3.37158-7.87378-7.53076-7.87378 c-4.15869,0-7.53027,3.52539-7.53027,7.87378c0,4.34924,3.37158,7.87463,7.53027,7.87463 C104.15401,112.96952,107.52559,109.44413,107.52559,105.09489z" transform="translate(437.4355 -121.98382)" stroke-width="0" stroke-linejoin="miter" stroke-miterlimit="2" fill="#232323" stroke="#232323"></path> </g>
                <g id="path121464" aria-label="s" transform="translate(-1.1368683772161603e-13 368.74803999999995) translate(568.0372455500001 55.063039999999994) scale(1.11) translate(-560.19613 35.136)"> <path class="c1" d="M114.11397,110.5004c0,9.28809-8.54883,12.75159-15.70996,12.75159s-13.19922-3.89832-13.19922-3.89832 l4.25-8.45715c0,0,4.67725,3.43616,9.27148,3.43616c1.9165,0,3.66992-1.17957,3.66992-2.57642 c0-5.26074-14.6792-0.70142-14.6792-12.61914c0-9.45654,8.51318-12.28857,14.74414-12.28857 c3.50537,0,7.99268,0.89429,10.62305,2.18042l-3.92822,7.79602c0,0-3.44434-1.71875-6.30908-1.71875 c-2.45605,0-3.60498,1.2356-3.60498,2.44531C99.2419,101.56669,114.11446,98.49418,114.11397,110.5004z" transform="translate(474.99134 -121.98455)" stroke-width="0" stroke-linejoin="miter" stroke-miterlimit="2" fill="#232323" stroke="#232323"></path> </g>
                <g id="path121466" aria-label="t" transform="translate(-1.1368683772161603e-13 368.74803999999995) translate(607.6683969500001 45.15295999999999) scale(1.11) translate(-592.89987 44.064)"> <path class="c1" d="M106.36348,113.47355v9.77844c-6.89941,0-17.72852-1.4552-17.72852-13.25342V98.49418H84.9167V88.10294 h3.71826V77.92912h11.78369v30.0022C100.41866,109.95036,101.51387,113.47355,106.36348,113.47355z" transform="translate(507.98317 -121.99312)" stroke-width="0" stroke-linejoin="miter" stroke-miterlimit="2" fill="#232323" stroke="#232323"></path> <path class="c3" d="M102.66182,94.82755c0-3.72119,2.92334-6.73901,6.53027-6.73901c3.60596,0,6.5293,3.01782,6.5293,6.73901 c0,3.72205-2.92334,6.73914-6.5293,6.73914C105.58516,101.56669,102.66182,98.5496,102.66182,94.82755z" transform="translate(507.98317 -121.99312)" stroke-width="0" stroke-linejoin="miter" stroke-miterlimit="2" fill="#0066ff" stroke="#0066ff"></path> </g>
                <g id="path121468" aria-label="s" transform="translate(-1.1368683772161603e-13 368.74803999999995) translate(647.9052087500003 55.063039999999994) scale(1.11) translate(-626.14925 35.136)"> <path class="c1" d="M114.11397,110.5004c0,9.28809-8.54883,12.75159-15.70996,12.75159s-13.19922-3.89832-13.19922-3.89832 l4.25-8.45715c0,0,4.67725,3.43616,9.27148,3.43616c1.9165,0,3.66992-1.17957,3.66992-2.57642 c0-5.26074-14.6792-0.70142-14.6792-12.61914c0-9.45654,8.51318-12.28857,14.74414-12.28857 c3.50537,0,7.99268,0.89429,10.62305,2.18042l-3.92822,7.79602c0,0-3.44434-1.71875-6.30908-1.71875 c-2.45605,0-3.60498,1.2356-3.60498,2.44531C99.2419,101.56669,114.11446,98.49418,114.11397,110.5004z" transform="translate(540.94446 -121.98455)" stroke-width="0" stroke-linejoin="miter" stroke-miterlimit="2" fill="#232323" stroke="#232323"></path> </g>
            </g>
        </g>
    </g>
</svg>
